<?xml version="1.0" standalone="no"?>
<!DOCTYPE svg PUBLIC "-//W3C//DTD SVG 20010904//EN"
 "http://www.w3.org/TR/2001/REC-SVG-20010904/DTD/svg10.dtd">
<svg version="1.0" xmlns="http://www.w3.org/2000/svg"
 width="547.000000pt" height="547.000000pt" viewBox="0 0 547.000000 547.000000"
 preserveAspectRatio="xMidYMid meet">
<metadata>
Created by potrace 1.11, written by Peter Selinger 2001-2013
</metadata>
<g transform="translate(0.000000,547.000000) scale(0.100000,-0.100000)"
fill="#000000" stroke="none">
<path d="M4950 5163 c-32 -22 -42 -33 -97 -118 -221 -334 -515 -565 -868 -680
-219 -72 -271 -77 -920 -85 -452 -6 -596 -11 -655 -23 -392 -78 -664 -223
-943 -500 -299 -298 -462 -626 -518 -1044 -11 -89 -9 -406 3 -419 4 -3 53 26
110 64 125 84 288 177 463 265 561 280 1260 438 1985 449 141 2 170 -1 202
-16 90 -44 94 -199 6 -251 -28 -16 -63 -20 -238 -26 -113 -4 -239 -10 -280
-14 -581 -52 -1170 -213 -1625 -445 -336 -171 -598 -364 -893 -658 -283 -281
-431 -476 -574 -758 -70 -139 -72 -146 -72 -216 0 -195 168 -340 353 -306 120
22 182 80 270 255 76 149 175 299 277 418 71 83 341 345 356 345 3 0 35 -35
71 -77 253 -303 637 -537 1005 -614 134 -27 352 -40 497 -28 740 61 1264 305
1737 810 475 507 753 1143 823 1878 54 585 -25 1156 -229 1636 -49 115 -67
144 -103 164 -33 17 -115 14 -143 -6z"/>
</g>
</svg>
